<?xml version="1.0" encoding="UTF-8"?>
<svg id="Layer_1" xmlns="http://www.w3.org/2000/svg" version="1.1" viewBox="0 0 168.2 30.7">
  <!-- Generator: Adobe Illustrator 29.3.0, SVG Export Plug-In . SVG Version: 2.1.0 Build 146)  -->
  <defs>
    <style>
      .st0 {
        fill: #ffc5c9;
      }
    </style>
  </defs>
  <path class="st0" d="M0,4.2c0-.5,0-1,.3-1.5s.5-.8.8-1.2c.3-.3.8-.6,1.2-.8.5-.2.9-.3,1.5-.3s1.4.2,2,.6c.6.4,1.1.9,1.4,1.6.9,2,1.7,3.7,2.4,5.2s1.3,2.7,1.8,3.8c.5,1.1.9,2,1.3,2.7.3.7.6,1.4.8,1.8,1.2,2.6,1.8,5.3,1.8,8.2v3.3c0,.3,0,.5.3.7.2.2.4.3.7.3s.5,0,.7-.3c.2-.2.3-.4.3-.7V4.2c0-.5,0-1,.3-1.5.2-.5.5-.8.8-1.2.3-.3.7-.6,1.2-.8s.9-.3,1.4-.3,1.4.2,2,.6c.6.4,1.1.9,1.4,1.6.4.8.9,1.9,1.4,3.1.6,1.2,1.2,2.5,1.8,3.9.7,1.4,1.3,2.8,2,4.3s1.4,3,2.1,4.5c.7,1.5,1.4,2.9,2,4.2.6,1.4,1.2,2.6,1.7,3.7.2.5.3,1,.3,1.5s-.2,1-.5,1.4-.6.7-1.1,1-1,.4-1.5.4-1.1-.2-1.6-.5-.9-.8-1.1-1.3l-8.9-19c-.2-.3-.1-.6,0-1,.2-.3.5-.5.9-.5s.4,0,.5.2c.2.1.3.2.4.4l8.9,19.1c.2.4.5.6.9.6s.7-.2.9-.5.2-.6,0-1L22.8,3.9c-.2-.3-.4-.6-.7-.8-.3-.2-.6-.3-1-.3s-.9.2-1.3.5-.5.8-.5,1.3v23c0,.9-.3,1.6-.9,2.2s-1.3.9-2.2.9-.8,0-1.2-.2-.7-.4-1-.6c-.3-.3-.5-.6-.7-1s-.2-.8-.2-1.2v-3.1c0-1.3-.1-2.6-.4-3.9-.3-1.3-.7-2.5-1.3-3.7s-1-2.2-1.6-3.5-1.2-2.5-1.8-3.8c-.6-1.2-1.1-2.4-1.6-3.5s-.9-2-1.2-2.6c0-.3-.4-.5-.6-.7-.3-.2-.6-.3-.9-.3-.5,0-.9.2-1.2.5s-.5.7-.5,1.2v23.4c0,.3,0,.5.3.7.2.2.4.3.7.3s.5,0,.7-.3c.2-.2.3-.4.3-.7v-13.8c0-.3,0-.5.3-.7.2-.2.4-.3.7-.3s.5,0,.7.3c.2.2.3.4.3.7v13.8c0,.9-.3,1.6-.9,2.2s-1.3.9-2.2.9-.8,0-1.2-.2c-.4-.2-.7-.4-1-.6C.4,29.7.2,29.4,0,29c-.2-.4-.2-.8-.2-1.2V4.2h.2Z"/>
  <path class="st0" d="M37.7,9.3c0-1.2.2-2.3.7-3.3.4-1,1.1-2,1.8-2.7.8-.8,1.7-1.4,2.7-1.8s2.2-.7,3.3-.7h11.2c.6,0,1.2.1,1.7.4.5.3,1,.6,1.5,1,.4.4.7.9,1,1.4.2.6.4,1.1.4,1.7v16.9c0,.6,0,1.2-.4,1.7-.2.6-.6,1-1,1.5s-.9.7-1.5,1c-.6.2-1.1.4-1.7.4h-11.2c-.6,0-1.2-.1-1.7-.4-.6-.2-1-.6-1.5-1-.4-.4-.7-.9-1-1.4-.2-.6-.4-1.1-.4-1.8v-12.8c0-.6,0-1.2.4-1.7.2-.6.6-1,1-1.5.4-.4.9-.7,1.4-1,.6-.2,1.1-.4,1.8-.4h10.2c.3,0,.5,0,.7.3.2.2.3.4.3.7s0,.5-.3.7c-.2.2-.4.3-.7.3h-10.2c-.7,0-1.3.2-1.8.7-.5.5-.7,1.1-.7,1.8v12.8c0,.7.2,1.3.7,1.8s1.1.7,1.8.7h11.2c.7,0,1.3-.2,1.8-.7s.7-1.1.7-1.8V5.2c0-.7-.2-1.3-.7-1.8s-1.1-.7-1.8-.7h-11.2c-.9,0-1.7.2-2.5.5s-1.5.8-2.1,1.4c-.6.6-1.1,1.3-1.4,2.1s-.5,1.6-.5,2.5v12.8c0,.9.2,1.7.5,2.5s.8,1.5,1.4,2.1c.6.6,1.3,1.1,2.1,1.4s1.6.5,2.5.5h11.2c.9,0,1.7-.2,2.5-.5s1.5-.8,2.1-1.4,1.1-1.3,1.4-2.1c.3-.8.5-1.6.5-2.5V6.2c0-.3,0-.5.3-.7.2-.2.4-.3.7-.3s.5,0,.7.3c.2.2.3.5.3.7v15.8c0,1.2-.2,2.3-.7,3.3s-1.1,2-1.8,2.7-1.7,1.4-2.7,1.8c-1,.5-2.2.7-3.3.7h-11.2c-1.2,0-2.3-.2-3.3-.7-1-.4-2-1.1-2.7-1.8-.8-.8-1.4-1.7-1.8-2.7-.5-1-.7-2.2-.7-3.3v-12.8h0Z"/>
  <path class="st0" d="M69,5c-.2-.5-.3-1-.3-1.5s.2-1,.5-1.4c.3-.4.6-.8,1.1-1,.4-.3.9-.4,1.5-.4s1.1.2,1.6.5c.5.3.9.7,1.1,1.3l7.1,21.8c.2.3,0,.7,0,1-.2.3-.5.5-.9.5h0c-.4,0-.7-.2-.9-.6l-7-21.8c-.2-.4-.5-.6-1-.6s-.6.2-.8.5c-.2.3-.2.6,0,1l7.6,22.9c.2.6.5,1,.9,1.2.4.3.9.4,1.4.4s1.1-.1,1.6-.4.8-.7,1-1.3c0-.2.2-.7.5-1.5s.6-1.8,1-3,.8-2.5,1.3-4,1-2.9,1.4-4.4c1.1-3.5,2.4-7.4,3.8-11.8.3-.5.6-1,1.1-1.3.5-.3,1-.5,1.6-.5s1.1.1,1.5.4.8.6,1.1,1,.4.9.5,1.4c0,.5,0,1-.3,1.5l-8.3,25.1c0,.2-.2.4-.4.5-.2.1-.4.2-.6.2h-.4c-.2-.1-.4-.3-.5-.5s0-.5,0-.7l8.4-25.3c.2-.3,0-.6,0-1-.2-.3-.5-.5-.9-.5s-.7.2-.9.6l-7.8,24.2c-.3,1.1-.9,1.9-1.8,2.4-.8.6-1.7.8-2.7.8s-1.8-.2-2.6-.7c-.8-.5-1.4-1.2-1.7-2.1l-7.5-22.8h-.3Z"/>
  <path class="st0" d="M100.2,1.7c0-.3,0-.5.3-.7.2-.2.4-.3.7-.3s.6.1.8.3c.2.2.3.5.3.7v25.8c0,.3,0,.5.3.7.2.2.4.3.8.3s.5,0,.7-.3c.2-.2.3-.4.3-.7V7.6c0-1,.2-1.9.6-2.7s.9-1.6,1.5-2.2,1.4-1.1,2.2-1.5c.8-.4,1.8-.5,2.7-.5h19.7c.4,0,.8,0,1.2.2s.7.4,1,.7c.3.3.5.6.6,1,.2.4.2.8.2,1.2s-.1.8-.3,1.2-.4.7-.7,1-.6.5-1,.6c-.4.2-.8.2-1.2.2h-17.5c-.4,0-.8,0-1.1.2s-.7.3-1,.6c-.3.3-.5.6-.7.9s-.3.7-.3,1.1,0,.8.2,1.2.4.7.6,1c.3.3.6.5,1,.7s.8.2,1.2.2h10.2c.4,0,.8,0,1.2.2.4.2.7.4,1,.7s.5.6.6,1,.2.8.2,1.2c0,.8-.4,1.5-1,2.1-.6.6-1.3.8-2.2.8h-8.2c-.7,0-1.3.1-1.9.4s-1.1.6-1.6,1.1-.8,1-1,1.6-.4,1.3-.3,2c0,.7.2,1.3.4,1.9.3.6.6,1.1,1.1,1.5s1,.8,1.6,1,1.2.4,1.9.4h15.6c.3,0,.5,0,.7-.3s.3-.4.3-.7,0-.5-.3-.7c-.2-.2-.5-.3-.7-.3h-16c-.3,0-.5,0-.7-.3-.2-.2-.3-.4-.3-.7s0-.5.3-.7.5-.3.8-.3h16c.4,0,.8,0,1.2.2s.7.4,1,.7c.3.3.5.6.6,1,.2.4.2.8.2,1.2,0,.8-.4,1.5-1,2.1s-1.3.8-2.2.8h-15.5c-.9,0-1.8-.2-2.7-.5-.9-.4-1.6-.8-2.3-1.5s-1.2-1.3-1.5-2.2-.6-1.7-.6-2.7,0-1.9.5-2.8.9-1.6,1.5-2.3,1.4-1.2,2.2-1.5c.8-.4,1.8-.6,2.7-.6h8.3c.3,0,.5,0,.7-.3,0-.1.2-.2.2-.3v-.4c0-.3,0-.5-.3-.7-.2-.2-.5-.3-.7-.3h-10.2c-.7,0-1.4-.1-2-.4-.6-.3-1.2-.6-1.6-1.1-.5-.5-.8-1-1.1-1.6-.3-.6-.4-1.3-.4-2s.2-1.3.4-1.9c.3-.6.6-1.1,1.1-1.5s1-.8,1.6-1,1.3-.4,1.9-.4h17.5c.3,0,.5,0,.7-.3s.3-.4.3-.7-.1-.5-.3-.7-.5-.3-.7-.3h-19.7c-.7,0-1.3,0-1.9.4-.6.3-1.1.6-1.6,1.1-.4.5-.8,1-1,1.6-.3.6-.4,1.2-.4,1.9v19.9c0,.4,0,.8-.2,1.2-.2.4-.4.7-.6,1s-.6.5-1,.7-.8.3-1.2.3c-.9,0-1.6-.3-2.2-.9s-.9-1.3-.9-2.2V1.7h.4Z"/>
  <path class="st0" d="M143.8,14.6c-1,0-1.9-.2-2.7-.6s-1.6-.9-2.2-1.5c-.6-.6-1.1-1.4-1.5-2.3-.4-.9-.5-1.8-.5-2.8s.2-1.9.6-2.7.9-1.5,1.5-2.2,1.4-1.1,2.2-1.5,1.7-.5,2.7-.5h18.2c.4,0,.8,0,1.2.2s.7.4,1,.6c.3.3.5.6.7,1,.2.4.3.8.3,1.2s0,.8-.2,1.2-.4.7-.6,1c-.3.3-.6.5-1,.7s-.8.2-1.2.2h-18.3c-.3,0-.5,0-.7-.3-.2-.2-.3-.4-.3-.7s.1-.5.3-.7.4-.3.7-.3h18.2c.3,0,.5,0,.8-.3.2-.2.3-.4.3-.7s0-.5-.3-.7c-.2-.2-.4-.3-.7-.3h-18.3c-.7,0-1.3,0-1.9.4-.6.3-1.1.6-1.6,1.1s-.8,1-1.1,1.6-.4,1.2-.4,1.9.1,1.3.4,1.9.6,1.1,1.1,1.6,1,.8,1.6,1.1,1.2.4,1.9.4h14.8c1.3,0,2.4.2,3.5.7s2.1,1.1,2.9,2c.8.8,1.5,1.8,1.9,2.9.5,1.1.7,2.3.7,3.5s-.2,2.4-.7,3.5-1.1,2.1-1.9,2.9c-.8.8-1.8,1.5-2.9,1.9-1.1.5-2.3.7-3.5.7h-18.7c-.9,0-1.6-.3-2.2-.9-.6-.6-.9-1.3-.9-2.1s0-.8.2-1.2c.2-.4.4-.7.6-1,.3-.3.6-.5,1-.7s.8-.2,1.2-.2h18.8c.4,0,.8,0,1.2-.2s.7-.4.9-.6c.3-.3.5-.6.6-.9.2-.4.2-.7.2-1.1,0-.8-.3-1.5-.8-2.1-.6-.6-1.3-.9-2.1-.9h-14.9c-.3,0-.5,0-.7-.3-.2-.2-.3-.4-.3-.7s0-.5.3-.7c.2-.2.4-.3.7-.3h14.9c.7,0,1.3.1,1.9.4.6.3,1.1.6,1.6,1.1s.8,1,1.1,1.6.4,1.2.4,1.9-.1,1.3-.4,1.9c-.3.6-.6,1.1-1.1,1.6s-1,.8-1.6,1.1c-.6.3-1.3.4-1.9.4h-18.7c-.3,0-.5,0-.8.3-.2.2-.3.4-.3.7s0,.5.3.7c.2.2.4.3.7.3h18.8c1,0,1.9-.2,2.7-.6s1.6-.9,2.2-1.5c.6-.6,1.1-1.4,1.5-2.2s.6-1.8.6-2.7-.2-1.9-.6-2.7c-.4-.8-.9-1.6-1.5-2.2s-1.4-1.1-2.2-1.5-1.8-.6-2.7-.6h-14.8l-.2-.2Z"/>
</svg>