<?xml version="1.0" encoding="UTF-8"?>
<svg id="Layer_1" xmlns="http://www.w3.org/2000/svg" version="1.1" viewBox="0 0 32 30.7">
  <!-- Generator: Adobe Illustrator 29.3.0, SVG Export Plug-In . SVG Version: 2.1.0 Build 146)  -->
  <defs>
    <style>
      .st0 {
        fill: #fffde9;
      }
    </style>
  </defs>
  <path class="st0" d="M7.8,30.7h0c-.6,0-1.1-.2-1.5-.5-.9-.7-1.3-1.9-1-3l2.4-7.3c0-.3,0-.6-.3-.8L1.1,14.5c-1.1-.8-1.4-2.2-.8-3.4s1.5-1.4,2.5-1.4h7.6c.3,0,.6-.2.7-.5l2.4-7.3c.4-1.1,1.4-1.8,2.6-1.8s2.2.7,2.5,1.8l2.4,7.3c0,.3.4.5.7.5h7.6c1.2,0,2.3.7,2.7,1.8.4,1.1,0,2.4-.9,3.1l-6.3,4.5c-.3.2-.4.5-.3.8l2.4,7.3c.4,1.1,0,2.3-1,3-.9.7-2.2.7-3.1,0l-2.6-1.9c-.4-.3-.5-1-.2-1.4s1-.5,1.4-.2l2.5,1.9c.2.2.5.2.8,0s.3-.5.3-.8l-2.7-8.2c-.2-.6,0-1.3.6-1.7l6.9-5.1c.2-.2.3-.5.2-.8,0-.3-.3-.5-.6-.5h-8.7c-.6,0-1.2-.4-1.4-1l-2.7-8.2c-.2-.6-1.1-.6-1.3,0l-2.7,8.2c-.1.5-.7,1-1.4,1H2.7c-.3,0-.5.2-.6.5,0,.3,0,.6.3.8l7,5.1c.5.3.7,1,.5,1.6l-2.7,8.2c0,.3,0,.6.3.8,0,0,.2.1.4.1s.3,0,.4-.1l7-5.1c.5-.3,1.1-.4,1.6,0l1.6,1.1c.4.3.5,1,.2,1.4s-.9.5-1.4.2l-1.2-.9-6.7,4.8c-.5.3-1,.5-1.5.5h0v.2h-.1Z"/>
</svg>