<?xml version="1.0" encoding="UTF-8"?>
<svg id="Layer_1" xmlns="http://www.w3.org/2000/svg" version="1.1" viewBox="0 0 145.7 139.4">
  <!-- Generator: Adobe Illustrator 29.3.0, SVG Export Plug-In . SVG Version: 2.1.0 Build 146)  -->
  <defs>
    <style>
      .st0 {
        fill: #fff200;
      }
    </style>
  </defs>
  <path class="st0" d="M32.9,139.4c-1.7,0-3.3-.5-4.8-1.6-2.9-2.1-4.1-5.7-3-9.1l13-39.9c.3-.9,0-1.9-.8-2.4L3.4,61.7c-2.9-2.1-4.1-5.7-3-9.1,1.1-3.4,4.1-5.6,7.7-5.6h42c.9,0,1.8-.6,2-1.5l13-39.9C66.2,2.2,69.3,0,72.9,0s6.6,2.2,7.7,5.6l13,39.9c.3.9,1.1,1.5,2,1.5h42c3.6,0,6.6,2.2,7.7,5.6,1.1,3.4,0,7-2.9,9.1l-34,24.7c-.8.5-1.1,1.5-.8,2.4l13,39.9c1.1,3.4,0,7-3,9.1-2.9,2.1-6.7,2.1-9.6,0l-34-24.7c-.8-.5-1.8-.5-2.5,0l-34,24.7c-1.5,1.1-3.1,1.6-4.8,1.6ZM72.9,106.7c1.7,0,3.3.5,4.8,1.6l34,24.7c1.2.8,2.2.2,2.5,0,.3-.2,1.2-1,.8-2.4l-13-39.9c-1.1-3.4,0-7,3-9.1l34-24.7c1.2-.9.9-2.1.8-2.4-.1-.3-.6-1.5-2-1.5h-42c-3.5,0-6.6-2.3-7.7-5.6l-13-39.9c-.4-1.4-1.7-1.5-2-1.5s-1.6.1-2,1.5l-13,39.9c-1.1,3.4-4.2,5.6-7.7,5.6H8.1c-1.4,0-1.9,1.1-2,1.5-.1.3-.4,1.5.8,2.4l34,24.7c2.9,2.1,4,5.7,3,9.1l-13,39.9c-.4,1.4.5,2.2.8,2.4.3.2,1.4.8,2.5,0l34-24.7c1.4-1,3.1-1.6,4.8-1.6Z"/>
</svg>